PathFileType	4	(X/Y/Z)	s04c0201.trc
DataRate	CameraRate	NumFrames	NumMarkers	Units	OrigDataRate	OrigDataStartFrame	OrigNumFrames
200	200	4	51	mm	200	500	2000
Frame#	Time	racr			lacr			c7			jug			rlel			rdr			llel			ldr			s2			lic			ric			lasi			rasi			rpsi			lpsi			rgt			lgt			rth1			rth2			rth3			rth4			rlfc			rmfc			rsh1			rsh2			rsh3			rsh4			rlmal			rmmal			rcal			rtoe			rmt5			lth1			lth2			lth4			lth3			llfc			lmfc			lsh1			lsh2			lsh3			lsh4			llmal			lmmal			lcal			ltoe			lmt1			lmt5			SBIKE			LBIKE			RBIKE			
		X1	Y1	Z1	X2	Y2	Z2	X3	Y3	Z3	X4	Y4	Z4	X5	Y5	Z5	X6	Y6	Z6	X7	Y7	Z7	X8	Y8	Z8	X9	Y9	Z9	X10	Y10	Z10	X11	Y11	Z11	X12	Y12	Z12	X13	Y13	Z13	X14	Y14	Z14	X15	Y15	Z15	X16	Y16	Z16	X17	Y17	Z17	X18	Y18	Z18	X19	Y19	Z19	X20	Y20	Z20	X21	Y21	Z21	X22	Y22	Z22	X23	Y23	Z23	X24	Y24	Z24	X25	Y25	Z25	X26	Y26	Z26	X27	Y27	Z27	X28	Y28	Z28	X29	Y29	Z29	X30	Y30	Z30	X31	Y31	Z31	X32	Y32	Z32	X33	Y33	Z33	X34	Y34	Z34	X35	Y35	Z35	X36	Y36	Z36	X37	Y37	Z37	X38	Y38	Z38	X39	Y39	Z39	X40	Y40	Z40	X41	Y41	Z41	X42	Y42	Z42	X43	Y43	Z43	X44	Y44	Z44	X45	Y45	Z45	X46	Y46	Z46	X47	Y47	Z47	X48	Y48	Z48	X49	Y49	Z49	X50	Y50	Z50	X51	Y51	Z51	
500	2.5000	540.797454	1380.220350	-159.279568	557.003572	1368.810417	-384.099284	506.216177	1426.807402	-288.104205	490.677968	1269.392894	-276.668940	451.158626	1102.680451	-1.228756	683.625125	956.313216	-104.518991	482.563806	1140.023473	-568.564135	672.761772	943.834327	-485.304283	-69.012149	1196.693359	-316.848609	100.405873	1192.452365	-467.235504	77.386365	1211.022930	-147.868463	125.846707	1144.650555	-418.345378	119.959207	1157.603403	-187.114794	-42.712867	1244.579453	-274.638987	-37.610512	1239.485439	-350.527138	36.008276	1163.407759	-128.970659	55.077612	1098.196067	-492.521063	152.026921	1042.561618	-115.822264	228.348084	998.197215	-126.733110	274.082521	926.591452	-129.870302	250.528584	1024.512623	-142.744261	367.898355	812.061432	-152.835522	341.706201	781.793058	-261.259748	329.236152	681.550169	-113.367293	344.031316	598.311498	-128.235373	301.165434	523.918373	-127.462245	374.122467	594.347071	-153.794004	277.564300	373.820533	-124.088275	291.648593	378.363401	-210.444970	208.338739	338.912042	-153.055891	508.604804	322.802978	-169.990632	447.013226	300.775662	-107.908286	112.819670	1031.763060	-498.012140	190.691248	993.430186	-499.122023	213.227097	1018.347596	-485.964313	240.709583	920.251449	-507.959571	330.352940	794.351344	-485.319058	356.823056	767.224769	-376.324850	263.491097	694.602624	-501.064914	219.458416	626.218716	-470.128682	141.918233	582.906035	-462.158450	241.020667	612.633013	-440.429211	33.476630	485.802794	-445.348246	36.112838	490.251668	-356.949486	-42.205048	514.372000	-398.151121	185.045677	310.211588	-415.138075	131.705934	325.171924	-367.062587	104.839863	330.671143	-471.297058	-186.175428	935.525525	-285.629348	-18.081663	79.440893	-484.538389	-18.194276	79.403105	-83.746347	
501	2.5050	541.338269	1381.211743	-160.182145	557.051696	1369.527293	-385.379960	506.941916	1427.284571	-289.243087	490.973184	1270.279904	-277.646538	452.040050	1103.692272	-1.943052	684.130355	956.407165	-104.698276	482.711009	1139.824323	-568.586692	673.201140	943.798249	-484.943735	-68.052806	1196.680880	-316.591493	100.888668	1193.592037	-467.168852	78.552209	1210.922763	-147.651532	127.001177	1146.645664	-419.614186	121.376421	1157.871667	-187.118300	-41.895041	1244.299838	-274.181795	-36.975247	1239.609998	-350.014466	37.152511	1162.733931	-128.989126	56.606304	1099.423685	-492.626169	152.227678	1040.763906	-115.358089	228.082271	995.523311	-126.081583	272.848314	923.416003	-129.136959	250.539702	1021.546796	-141.907039	365.558457	807.783257	-151.894168	339.857203	777.781906	-260.596577	326.896824	677.322308	-112.646558	342.606454	593.766643	-127.605525	300.208903	519.121653	-126.969151	372.761775	589.997057	-153.116549	277.293967	368.855690	-123.965563	291.907966	373.375263	-210.218912	208.115215	334.967086	-152.931670	508.302851	315.874395	-169.643064	446.443460	294.139173	-107.888487	114.803935	1033.783922	-498.337005	193.065409	996.224155	-499.444228	215.322214	1021.273333	-486.115808	243.780371	923.552849	-508.625381	334.386819	798.310991	-486.134342	369.828708	772.946982	-374.525607	267.189864	699.093931	-501.714866	222.682613	631.120179	-470.584268	144.863156	588.387485	-462.505259	244.123902	617.483898	-440.841606	35.682727	492.231258	-445.505824	38.441244	496.849313	-357.105448	-39.895336	521.234329	-398.315921	186.199202	315.993227	-414.942013	132.671730	331.257943	-366.889821	106.254904	336.800645	-471.177799	-186.129809	935.544866	-285.541931	-18.082861	79.459711	-484.528313	-18.193508	79.412170	-83.759572	
502	2.5100	541.972609	1382.092879	-160.966539	557.019673	1370.326521	-386.719625	507.626648	1427.741249	-290.426957	491.307810	1271.299170	-278.647886	452.818873	1104.565676	-2.721278	684.293031	956.196989	-104.811800	482.834270	1139.619586	-568.588568	673.615587	943.947003	-484.776280	-67.234698	1196.649365	-316.287621	101.185411	1194.823120	-467.066797	79.746870	1210.823854	-147.450329	127.945048	1148.706998	-420.878207	122.874488	1158.267251	-187.242178	-40.988596	1244.124554	-273.579381	-36.393231	1239.721096	-349.550594	38.278621	1161.871504	-129.090969	58.146277	1100.933541	-492.813706	152.427039	1039.039252	-114.639471	227.597244	992.857958	-125.165884	271.342109	920.077713	-128.324901	250.578470	1018.482944	-141.046844	363.057339	803.396542	-150.847930	337.604391	773.513277	-259.829291	324.489885	673.153408	-111.921084	341.018037	589.183789	-126.876442	298.925696	514.281867	-126.432509	371.195271	585.639202	-152.436644	276.837207	363.959813	-123.868597	292.334595	368.733843	-210.461975	207.741156	330.853493	-152.890505	507.547014	307.971322	-170.223660	445.682124	287.805239	-107.697227	116.748590	1035.890814	-498.580875	195.363722	999.072160	-499.723253	217.362370	1024.278186	-486.266130	246.773145	926.997603	-509.297246	338.373271	802.439362	-487.082096	373.108168	776.947690	-375.698472	270.921391	703.629507	-502.340221	225.963385	636.047853	-470.940603	147.865032	593.776547	-462.906129	247.290200	622.131871	-441.853420	38.023150	498.607569	-445.781319	40.918760	503.339047	-357.384030	-37.467969	528.103031	-398.673180	187.593701	321.664539	-414.922215	133.793808	337.448305	-366.714445	107.863042	342.945620	-471.218210	-186.099002	935.591165	-285.479138	-18.068041	79.418044	-484.455588	-18.172538	79.419721	-83.725537	
503	2.5150	542.395751	1383.153449	-161.881142	556.959425	1371.248826	-388.103354	508.270976	1428.178193	-291.653966	491.520936	1272.212063	-279.773301	453.659947	1105.591500	-3.354970	684.615184	956.156940	-105.400315	482.894043	1139.423181	-568.588090	673.972565	944.085355	-484.703372	-66.123178	1197.679781	-319.997995	101.386675	1196.071300	-466.954853	80.788710	1210.701332	-147.262397	128.823717	1150.827219	-422.129222	123.725034	1157.992730	-187.055830	-40.177864	1243.894395	-272.972776	-35.767329	1239.864973	-349.035522	39.360462	1161.479959	-128.429475	59.676851	1102.449654	-492.971129	152.502732	1037.245241	-114.042751	227.136905	990.109484	-124.314227	269.806263	916.690444	-127.464074	250.355194	1015.213317	-140.262623	360.362857	798.965666	-149.762395	335.091220	769.117114	-258.865336	322.020613	669.047285	-111.193107	339.125953	584.601529	-126.180993	297.464022	509.490774	-125.947776	369.068005	581.309018	-151.361597	276.134267	359.001913	-123.767808	292.007106	363.812328	-210.277335	207.090845	326.786275	-152.859502	506.522562	300.866290	-169.711496	444.349818	280.572355	-108.313154	118.644877	1038.122162	-498.856636	197.571942	1002.058779	-500.085350	219.336135	1027.383996	-486.397648	249.698216	930.556465	-510.017400	342.434944	806.759349	-488.097227	376.109243	780.972816	-376.921878	274.655308	708.399073	-503.263256	229.343414	641.061702	-471.464021	150.982353	599.323078	-463.348721	250.597629	627.075524	-442.391195	40.455682	504.900299	-446.035502	43.200396	508.716485	-358.444178	-34.978800	534.821909	-398.908745	189.176887	327.320371	-414.886746	134.971939	343.713103	-366.534146	109.518827	348.881496	-471.251148	-186.062480	935.607724	-285.403693	-18.071426	79.506498	-484.534393	-18.160242	79.408594	-83.731635	
